<?xml version="1.0" encoding="iso-8859-1"?>
<!-- Generator: Adobe Illustrator 19.0.0, SVG Export Plug-In . SVG Version: 6.00 Build 0)  -->
<svg version="1.1" id="Layer_1" xmlns="http://www.w3.org/2000/svg" xmlns:xlink="http://www.w3.org/1999/xlink" x="0px" y="0px"
	 viewBox="0 0 512 512" style="enable-background:new 0 0 512 512;" xml:space="preserve">
<g>
	<g>
		<path d="M346.747,0H47.628v512h416.744V117.625L346.747,0z M357.209,60.979l46.184,46.184h-46.184V60.979z M428.651,476.279
			H83.349v-35.721h345.302V476.279z M428.651,404.837H83.349V250.047h345.302V404.837z M428.651,214.326H83.349V35.721h238.14
			v107.163h107.163V214.326z"/>
	</g>
</g>
<g>
	<g>
		<path d="M205.743,337.658c-2.579,6.231-9.029,10.502-17.039,10.502c-13.174,0-20.039-12.186-20.039-23.041
			c0-13.654,8.749-22.826,19.825-22.826c1.569,0,12.539-0.227,17.252,10.395l13.504-9.43c-4.176-7.816-13.85-16.609-30.328-16.609
			c-19.764,0-38.15,14.971-38.15,37.828c0,20.826,16.748,39.329,37.509,39.328c15.631,0,27.762-8.085,31.827-17.682L205.743,337.658
			z"/>
	</g>
</g>
<g>
	<g>
		<path d="M266.181,317.726c-8.302-2.265-15.967-3.753-15.967-9.323c0-4.214,3.143-6.323,9.43-6.323
			c5.287,0,13.919,2.515,20.254,7.287l7.717-14.572c-8.469-4.71-16.804-8.359-27.434-8.359c-19.66,0-28.077,12.132-28.077,24.753
			c0,12.457,6.989,17.568,27.808,23.147c6.208,1.665,11.091,3.971,11.091,8.144c0,3.786-3.108,5.68-9.323,5.68
			c-9.996,0-18.406-4.347-25.076-8.896l-7.716,15.324c9.326,6.118,19.968,9.432,32.47,9.432c19.646,0,28.505-10.483,28.505-23.256
			C289.863,327.888,282.975,322.308,266.181,317.726z"/>
	</g>
</g>
<g>
	<g>
		<path d="M337.443,317.726c-8.302-2.265-15.967-3.753-15.967-9.323c0-4.214,3.143-6.323,9.43-6.323
			c5.287,0,13.919,2.515,20.254,7.287l7.716-14.572c-8.469-4.71-16.804-8.359-27.434-8.359c-19.66,0-28.077,12.132-28.077,24.753
			c0,12.457,6.991,17.568,27.809,23.147c6.208,1.665,11.091,3.971,11.091,8.144c0,3.786-3.108,5.68-9.323,5.68
			c-9.997,0-18.406-4.347-25.077-8.896l-7.715,15.324c9.326,6.118,19.968,9.432,32.47,9.432c19.647,0,28.505-10.483,28.505-23.256
			C361.126,327.888,354.237,322.308,337.443,317.726z"/>
	</g>
</g>
<g>
</g>
<g>
</g>
<g>
</g>
<g>
</g>
<g>
</g>
<g>
</g>
<g>
</g>
<g>
</g>
<g>
</g>
<g>
</g>
<g>
</g>
<g>
</g>
<g>
</g>
<g>
</g>
<g>
</g>
</svg>
