<?xml version="1.0" standalone="no"?>
<!DOCTYPE svg PUBLIC "-//W3C//DTD SVG 20010904//EN"
 "http://www.w3.org/TR/2001/REC-SVG-20010904/DTD/svg10.dtd">
<svg version="1.0" xmlns="http://www.w3.org/2000/svg"
 width="512.000000pt" height="512.000000pt" viewBox="0 0 512.000000 512.000000"
 preserveAspectRatio="xMidYMid meet">

<g transform="translate(0.000000,512.000000) scale(0.100000,-0.100000)"
fill="#000000" stroke="none">
<path d="M275 4936 c-37 -17 -80 -62 -94 -99 -8 -20 -11 -482 -11 -1493 l0
-1464 600 0 600 0 -2 1533 -3 1532 -530 2 c-426 2 -536 0 -560 -11z m293 -266
c44 -41 35 -110 -18 -137 -32 -16 -128 -16 -160 0 -54 27 -63 94 -20 137 29
29 166 29 198 0z m599 -2 c15 -14 23 -33 23 -54 0 -82 -27 -94 -214 -94 -141
0 -145 1 -175 26 -40 33 -43 83 -6 119 24 24 27 25 186 25 153 0 164 -1 186
-22z m-592 -350 c32 -38 29 -81 -11 -115 -21 -19 -37 -23 -95 -23 -65 0 -73 2
-100 29 -31 31 -36 59 -17 94 20 39 40 46 120 47 74 0 77 -1 103 -32z m589 11
c19 -15 26 -30 26 -54 0 -83 -26 -95 -210 -95 -142 0 -172 6 -197 39 -21 27
-15 79 12 106 24 24 28 25 183 25 146 0 162 -2 186 -21z m-598 -343 c21 -18
28 -32 28 -61 0 -29 -7 -43 -28 -61 -23 -20 -38 -24 -97 -24 -65 0 -73 2 -100
29 -17 18 -29 40 -29 56 0 16 12 38 29 56 27 27 35 29 100 29 59 0 74 -4 97
-24z m599 -1 c17 -16 25 -35 25 -60 0 -25 -8 -44 -25 -60 -23 -24 -28 -25
-175 -25 -192 0 -220 11 -220 91 0 18 10 39 25 54 24 24 27 25 185 25 158 0
161 -1 185 -25z m-599 -339 c21 -18 28 -32 28 -61 0 -29 -7 -43 -28 -61 -23
-20 -38 -24 -97 -24 -65 0 -73 2 -100 29 -17 18 -29 40 -29 56 0 16 12 38 29
56 27 27 35 29 100 29 59 0 74 -4 97 -24z m605 -5 c27 -33 25 -86 -6 -116 -24
-24 -27 -25 -185 -25 -158 0 -161 1 -185 25 -27 27 -33 79 -12 106 27 35 50
39 210 37 153 -3 159 -4 178 -27z m-601 -336 c34 -34 36 -77 5 -113 -26 -31
-29 -32 -104 -32 -64 0 -81 4 -99 20 -46 43 -37 109 18 138 38 20 155 11 180
-13z m579 10 c33 -16 41 -33 41 -80 0 -24 -7 -39 -26 -54 -24 -19 -40 -21
-186 -21 -155 0 -159 1 -183 25 -37 36 -34 86 6 119 30 25 34 26 175 26 108 0
152 -4 173 -15z m-600 -340 c33 -16 56 -64 46 -95 -15 -46 -44 -60 -127 -60
-64 0 -81 3 -98 20 -43 43 -34 110 20 137 34 17 125 16 159 -2z m590 4 c17 -6
36 -19 41 -29 17 -32 11 -82 -12 -107 -21 -22 -27 -23 -185 -23 -161 0 -164 0
-188 25 -41 40 -26 113 29 135 31 13 278 12 315 -1z m-595 -343 c70 -29 70
-123 0 -152 -43 -18 -106 -18 -149 1 -68 28 -70 115 -5 147 42 21 108 23 154
4z m620 -15 c36 -34 36 -88 0 -122 -25 -23 -30 -24 -186 -24 l-160 0 -24 28
c-29 34 -31 76 -4 110 27 33 39 35 207 34 135 -2 143 -3 167 -26z m-605 -331
c10 -5 24 -23 31 -40 16 -39 -1 -85 -41 -105 -34 -18 -125 -19 -159 -2 -52 26
-62 95 -20 137 16 16 34 20 96 20 41 0 83 -4 93 -10z m608 -12 c30 -28 32 -89
4 -117 -28 -28 -69 -33 -220 -29 -131 3 -133 3 -157 31 -31 37 -31 81 1 112
24 24 27 25 186 25 153 0 164 -1 186 -22z"/>
<path d="M1540 3415 l0 -1535 1705 0 1705 0 0 1464 c0 1011 -3 1473 -11 1493
-14 38 -57 83 -96 99 -27 12 -301 14 -1668 14 l-1635 0 0 -1535z m635 1269
c31 -12 45 -59 45 -154 l0 -90 85 0 85 0 0 100 c0 94 2 103 25 125 16 17 35
25 60 25 25 0 44 -8 60 -25 l25 -24 0 -286 0 -287 -29 -29 c-38 -38 -74 -38
-112 0 -28 29 -29 32 -29 130 l0 101 -85 0 -85 0 0 -101 c0 -98 -1 -101 -29
-130 -31 -31 -59 -36 -94 -17 -46 24 -46 29 -47 331 l0 288 25 24 c24 25 65
32 100 19z m870 -19 c37 -36 34 -86 -6 -119 -17 -14 -34 -26 -39 -26 -5 0 -10
-104 -12 -231 l-3 -231 -29 -25 c-24 -20 -36 -24 -65 -19 -69 11 -71 20 -71
275 l0 227 -32 15 c-61 27 -74 93 -28 139 18 18 34 20 140 20 115 0 122 -1
145 -25z m326 15 c10 -6 43 -47 73 -91 l54 -81 42 64 c66 97 88 118 129 118
22 0 43 -8 58 -22 l23 -21 0 -293 c0 -327 0 -329 -71 -340 -29 -5 -41 -1 -65
19 -29 25 -29 26 -33 151 l-3 126 -25 -20 c-35 -27 -75 -25 -112 6 l-31 26 0
-131 c0 -117 -2 -133 -20 -151 -43 -43 -110 -34 -137 20 -17 34 -18 551 -1
583 23 45 74 60 119 37z m700 -16 c24 -25 24 -28 27 -255 l3 -229 54 0 c71 0
109 -30 109 -85 0 -29 -7 -43 -28 -62 -28 -24 -34 -24 -148 -21 -170 4 -158
-22 -158 341 0 285 0 291 22 314 31 33 87 31 119 -3z m-2152 -1009 c49 -25 57
-90 16 -130 -21 -22 -33 -25 -100 -25 -67 0 -79 3 -100 25 -42 41 -32 105 20
133 29 16 131 14 164 -3z m934 3 c53 -28 64 -92 22 -133 l-24 -25 -330 0 -330
0 -27 24 c-21 18 -28 32 -28 61 0 29 7 43 28 61 l27 24 320 0 c224 0 327 -3
342 -12z m1280 0 c53 -28 64 -92 22 -133 l-24 -25 -501 0 -502 0 -29 29 c-17
18 -29 40 -29 56 0 16 12 38 29 56 l29 29 492 0 c354 0 497 -3 513 -12z
m-1874 -343 c49 -25 57 -90 16 -130 l-24 -25 -246 0 -246 0 -24 25 c-28 27
-34 80 -12 107 27 34 51 37 280 38 181 0 234 -3 256 -15z m934 3 c53 -28 64
-92 22 -133 l-24 -25 -330 0 c-328 0 -330 0 -355 23 -28 24 -34 48 -23 89 14
54 33 57 375 58 220 0 320 -3 335 -12z m-919 -357 c33 -31 35 -85 4 -118 -21
-23 -23 -23 -274 -23 l-253 0 -20 26 c-38 49 -19 115 39 137 8 3 119 5 247 4
230 -2 232 -2 257 -26z m772 -4 c31 -37 31 -81 -1 -112 l-24 -25 -247 0 c-241
0 -248 1 -271 22 -26 24 -32 83 -10 110 28 35 49 38 290 35 l239 -2 24 -28z
m-1109 -342 c30 -34 29 -77 -1 -112 -23 -26 -29 -28 -99 -28 -66 0 -79 3 -101
24 -48 46 -26 127 39 144 11 3 47 4 80 2 50 -3 64 -8 82 -30z m939 2 c31 -36
31 -78 0 -114 l-24 -28 -306 -3 c-349 -4 -378 0 -403 53 -16 33 -16 37 0 70
11 24 26 37 49 44 19 6 166 9 346 8 l314 -2 24 -28z m678 4 c36 -34 36 -88 0
-122 -25 -23 -31 -24 -202 -27 -208 -4 -245 3 -269 53 -14 29 -14 38 -3 65 22
54 51 60 262 58 182 -3 187 -4 212 -27z m-1277 -343 c33 -31 31 -87 -3 -119
l-26 -24 -243 0 -243 0 -26 24 c-32 30 -34 78 -5 115 l20 26 252 0 c244 0 251
-1 274 -22z m1450 0 c25 -23 31 -74 13 -108 -20 -38 -56 -40 -632 -40 -590 0
-605 1 -622 45 -13 34 -6 79 16 102 l21 23 591 0 590 0 23 -22z"/>
<path d="M170 1522 c0 -175 2 -191 23 -232 26 -52 59 -78 113 -90 52 -13 4456
-13 4508 0 54 12 87 38 113 90 21 41 23 57 23 232 l0 188 -2390 0 -2390 0 0
-188z m2590 7 c22 -8 37 -22 46 -45 15 -37 11 -58 -19 -91 -20 -22 -26 -23
-227 -23 -201 0 -207 1 -227 23 -29 32 -34 52 -21 88 17 50 50 58 244 59 103
0 184 -5 204 -11z"/>
<path d="M1620 935 l0 -85 940 0 940 0 0 85 0 85 -940 0 -940 0 0 -85z"/>
<path d="M1410 597 l-145 -82 648 -3 c356 -1 938 -1 1295 0 l647 3 -144 82
-143 83 -1007 0 -1006 0 -145 -83z"/>
<path d="M1020 255 l0 -85 1540 0 1540 0 0 85 0 85 -1540 0 -1540 0 0 -85z"/>
</g>
</svg>
