<?xml version="1.0" standalone="no"?>
<!DOCTYPE svg PUBLIC "-//W3C//DTD SVG 20010904//EN"
 "http://www.w3.org/TR/2001/REC-SVG-20010904/DTD/svg10.dtd">
<svg version="1.0" xmlns="http://www.w3.org/2000/svg"
 width="512.000000pt" height="512.000000pt" viewBox="0 0 512.000000 512.000000"
 preserveAspectRatio="xMidYMid meet">

<g transform="translate(0.000000,512.000000) scale(0.100000,-0.100000)"
fill="#000000" stroke="none">
<path d="M1730 4935 c-751 -101 -1425 -191 -1497 -200 l-133 -18 0 -2153 c0
-1835 2 -2154 14 -2154 15 0 2917 -396 2974 -405 l32 -6 0 221 0 220 795 0
c549 0 810 3 847 11 107 23 199 102 237 203 l21 57 -2 1867 -3 1867 -26 55
c-33 70 -89 126 -159 159 l-55 26 -827 3 -828 2 0 215 c0 166 -3 215 -12 214
-7 -1 -627 -83 -1378 -184z m3037 -455 c68 -41 63 114 63 -1917 0 -1781 -1
-1839 -19 -1869 -41 -67 -3 -64 -890 -64 l-801 0 0 217 0 217 49 -55 c83 -93
195 -137 320 -126 124 12 200 50 252 127 52 77 53 84 56 558 l4 442 -116 0
-115 0 0 -414 c0 -241 -4 -425 -10 -440 -18 -49 -45 -66 -107 -66 -56 0 -58 1
-109 54 l-51 55 -82 -50 c-45 -27 -84 -49 -87 -49 -2 0 -4 765 -4 1700 l0
1700 808 0 c783 0 808 -1 839 -20z m-2760 -1280 c74 -8 177 -32 191 -45 2 -2
-40 -164 -53 -202 -3 -9 -20 -7 -62 9 -44 16 -83 21 -158 22 -88 1 -104 -2
-137 -22 -39 -24 -58 -66 -50 -109 7 -38 64 -78 183 -128 246 -104 323 -190
323 -361 0 -72 -4 -90 -32 -147 -38 -77 -84 -120 -168 -158 -127 -58 -318 -62
-485 -9 -100 31 -96 22 -69 145 19 88 26 105 39 99 173 -78 348 -87 418 -22
51 48 37 131 -30 176 -23 16 -89 48 -146 72 -111 46 -203 109 -238 162 -94
141 -59 325 84 434 66 51 150 77 288 93 6 0 51 -4 102 -9z m-710 -452 c-3
-288 -8 -438 -16 -469 -29 -111 -113 -201 -214 -231 -55 -16 -198 -16 -266 1
l-53 14 5 36 c3 20 9 64 13 99 l7 63 41 -8 c120 -24 183 -3 221 73 19 37 20
62 23 442 l3 402 120 0 120 0 -4 -422z"/>
<path d="M4215 2007 c-62 -21 -97 -42 -137 -84 -56 -58 -78 -114 -78 -204 0
-98 21 -156 77 -220 39 -42 72 -63 210 -131 92 -45 172 -92 183 -106 12 -14
20 -40 20 -61 0 -73 -57 -115 -156 -113 -76 1 -125 24 -182 86 l-42 46 -90
-51 c-50 -28 -90 -55 -90 -59 0 -12 56 -84 91 -116 86 -79 176 -109 324 -108
90 0 120 4 168 23 80 31 135 76 170 140 43 76 49 188 17 275 -37 96 -92 143
-272 230 -84 41 -163 85 -175 98 -66 71 -19 168 82 168 45 0 85 -20 119 -60
l26 -32 85 54 c47 29 85 58 85 65 0 26 -101 121 -152 144 -65 28 -219 37 -283
16z"/>
</g>
</svg>
