<svg xmlns="http://www.w3.org/2000/svg" version="1.1" xmlns:xlink="http://www.w3.org/1999/xlink" xmlns:svgjs="http://svgjs.dev/svgjs" width="100%" height="100%" viewBox="0 0 1000 600"><rect width="1000" height="600" x="0" y="0" fill="#cc313d"/><g><circle r="166.66666666666666" cx="506.8697306315104" cy="529.0919314784488" fill="#f7c5cc" transform="matrix(0.3674275913738487,0,0,0.3674275913738487,0,105.59700536733772)"/><path d="M513.9733293540501 590.7528300209476L521.4675422949542 592.2285244610484L521.4675422949542 604.0919503520549L469.9918480020254 604.0919503520549L469.9918480020254 592.6336170524485L480.84254241453147 590.7528300209476Q486.2534220282345 589.711163357347 486.2534220282345 585.7470429986447L486.2534220282345 585.7470429986447Q486.2534220282345 583.8951911522436 485.41430166033405 581.3778300485424L485.41430166033405 581.3778300485424L476.2418479836289 554.294496794927L420.4258759256976 554.294496794927L411.05087595329235 580.770191161442Q410.21175558539187 583.6637096714435 410.21175558539187 585.3419504072444L410.21175558539187 585.3419504072444Q410.21175558539187 589.711163357347 415.82518149479506 590.7528300209476L415.82518149479506 590.7528300209476L426.24184813080086 592.6336170524485L426.24184813080086 604.0919503520549L378.1226353094739 604.0919503520549L378.1226353094739 592.2285244610484L385.41430195467797 590.7528300209476Q389.5809686090803 589.9137096530471 391.4617556405814 588.1486633619461Q393.3425426720824 586.383617070845 395.2233297035835 581.1752837528422L395.2233297035835 581.1752837528422L440.62263512550896 454.0919507935709L460.21175543821994 454.0919507935709L503.96175530944447 581.1752837528422Q505.63999604524537 586.1810707751449 507.6075886320465 588.061857806646Q509.57518121884755 589.9137096530471 513.9733293540501 590.7528300209476L513.9733293540501 590.7528300209476ZM425.2001814672003 540.3477375767193L471.4675424421262 540.3477375767193L451.47332953801504 481.37783034288617L448.7534221386135 470.9611637068803L446.03351473921197 481.37783034288617L425.2001814672003 540.3477375767193ZM532.7233292988606 454.0919507935709L635.6168475145182 454.0919507935709L634.3726345552176 489.91370994739094L621.4675420006104 489.91370994739094L620.2233290413096 474.72273776988243Q619.9918475605095 471.16371000258044 618.2268012694085 469.91949704327976Q616.4617549783075 468.6752840839791 612.2950883239051 468.6752840839791L612.2950883239051 468.6752840839791L566.4617551254795 468.6752840839791L566.4617551254795 520.353524672608L611.4559679560048 520.353524672608L611.4559679560048 534.3002838908159L566.4617551254795 534.3002838908159L566.4617551254795 582.6220430078429Q566.4617551254795 586.7887096622453 567.7059680847802 588.4669503980463Q568.9501810440809 590.1451911338472 572.711755107083 590.5502837252475L572.711755107083 590.5502837252475L587.4976346931912 592.2285244610484L587.4976346931912 604.0919503520549L532.7233292988606 604.0919503520549L532.7233292988606 592.2285244610484L543.1399959348664 590.3477374295474Q546.8726348127685 589.711163357347 548.0300422167692 588.1486633619461Q549.1585144356698 586.5861633665452 549.1585144356698 582.4194967121427L549.1585144356698 582.4194967121427L549.1585144356698 474.72273776988243Q549.1585144356698 470.9611637068803 547.914301476369 469.3118581561794Q546.6700885170684 467.63361742037847 543.1399959348664 467.22852482897827L543.1399959348664 467.22852482897827L532.7233292988606 465.9553766845775L532.7233292988606 454.0919507935709Z " fill="#cc313d" transform="matrix(0.3674275913738487,0,0,0.3674275913738487,0,105.59700536733772)"/><path d="M880.6830402070649 590.036040223853L887.5132088551767 591.3809769074578L887.5132088551767 602.1932129913412L840.5986527741316 602.1932129913412L840.5986527741316 591.7501752127612L850.4878930947565 590.036040223853Q855.4193276013082 589.086673153073 855.4193276013082 585.4738040226046L855.4193276013082 585.4738040226046Q855.4193276013082 583.7860403412178 854.6545596831799 581.4917365868328L854.6545596831799 581.4917365868328L846.2948551988115 556.8081927465528L795.4246029895164 556.8081927465528L786.8802993524963 580.9379391288778Q786.115531434368 583.5750698810446 786.115531434368 585.1046057173012L786.115531434368 585.1046057173012Q786.115531434368 589.086673153073 791.2315650935714 590.036040223853L791.2315650935714 590.036040223853L800.7252358013714 591.7501752127612L800.7252358013714 602.1932129913412L756.8697513928396 602.1932129913412L756.8697513928396 591.3809769074578L763.5153208882996 590.036040223853Q767.3127891714196 589.2712723057246 769.026924160328 587.6626225469029Q770.7410591492362 586.0539727880812 772.4551941381446 581.3071374341812L772.4551941381446 581.3071374341812L813.8317756396398 465.4843547990208L831.6851508318082 465.4843547990208L871.5585678045683 581.3071374341812Q873.0881036408249 585.8693736354296 874.8813525522983 587.5835086243378Q876.6746014637716 589.2712723057246 880.6830402070649 590.036040223853L880.6830402070649 590.036040223853ZM799.7758687305914 544.0972225211094L841.9435894577365 544.0972225211094L823.7210159602648 490.35249779195254L821.2421130532281 480.85882708415255L818.7632101461913 490.35249779195254L799.7758687305914 544.0972225211094ZM945.9783976307118 509.15524005490096Q956.6324058694652 509.15524005490096 964.8866251237469 514.4822441742776Q973.1408443780285 519.7828769861326 977.703080579277 529.9358303819743Q982.2653167805253 540.1151550853376 982.2653167805253 554.1446906868644L982.2653167805253 554.1446906868644Q982.2653167805253 568.5961672087378 976.9383126611485 579.8830868280113Q971.6113085417719 591.1700064472845 961.3792412233653 597.630976790093Q951.1208025974369 604.0919471329012 936.6956973830851 604.0919471329012L936.6956973830851 604.0919471329012Q928.5205920513685 604.0919471329012 919.21152049622 601.9031286086029Q909.9024489410717 599.7143100843045 902.3075123748316 595.5476434958812L902.3075123748316 595.5476434958812L902.3075123748316 472.3145234471325Q902.3075123748316 468.5170551640125 901.3581453040516 467.0138906352775Q900.4087782332716 465.4843547990208 897.5606770209316 465.29975564636914L897.5606770209316 465.29975564636914L887.1176392423516 464.16578942293745L887.1176392423516 454.0919499496608L917.4973855073117 454.0919499496608L917.4973855073117 521.6816111276926Q922.8243896266885 516.1700078556644 930.1292418101901 512.6626239552827Q937.4340939936918 509.15524005490096 945.9783976307118 509.15524005490096L945.9783976307118 509.15524005490096ZM941.6271318896368 591.3809769074578Q955.1028700332084 591.3809769074578 960.4298741525852 582.7311880403513Q965.7305069644402 574.0813991732446 965.7305069644402 555.8588256757728L965.7305069644402 555.8588256757728Q965.7305069644402 538.9548175543844 958.9003383163284 530.3313999947993Q952.0701696682169 521.6816111276926 940.2821952060318 521.6816111276926L940.2821952060318 521.6816111276926Q933.6366257105718 521.6816111276926 927.75582413324 525.1098811055093Q921.8750225559085 528.5117797758044 917.4973855073117 533.838783895181L917.4973855073117 533.838783895181L917.4973855073117 583.9706394938696Q927.3866258279368 591.3809769074578 941.6271318896368 591.3809769074578L941.6271318896368 591.3809769074578ZM1055.735779535889 509.15524005490096Q1064.4646823255605 509.15524005490096 1070.925652668369 512.7681091853692L1070.925652668369 512.7681091853692L1069.396116832112 536.686885107521L1058.3992815955771 536.686885107521L1056.3159483013656 524.7143114926844Q1054.0216445469805 523.2111469639493 1049.2748091930805 523.2111469639493L1049.2748091930805 523.2111469639493Q1041.864471779492 523.2111469639493 1035.6144718968571 529.8567164594094Q1029.3381007067005 536.5022859548694 1027.070168259837 545.8113575100177L1027.070168259837 545.8113575100177L1027.070168259837 583.5750698810446Q1027.070168259837 587.5835086243378 1027.9140501005304 589.0075592305079Q1028.7843032487453 590.4316098366778 1031.421434000912 590.6162089893296L1031.421434000912 590.6162089893296L1044.9235434520056 591.934774365413L1044.9235434520056 602.1932129913412L997.4551899130053 602.1932129913412L997.4551899130053 591.934774365413L1007.5026580787603 590.6162089893296Q1010.3507592911003 590.4316098366778 1011.1155272092287 589.0075592305079Q1011.880295127357 587.5835086243378 1011.880295127357 583.5750698810446L1011.880295127357 583.5750698810446L1011.880295127357 529.2765476939327Q1011.880295127357 525.1098811055093 1011.1155272092287 523.6858304993393Q1010.3507592911003 522.2617798931693 1007.5026580787603 522.0771807405176L1007.5026580787603 522.0771807405176L997.8243882183086 520.9168432095644L997.8243882183086 511.05397419646096L1024.4066662001487 511.05397419646096L1026.3054003417087 529.091948541281Q1030.472066930132 520.7322440569126 1038.647172261849 514.9569277096676Q1046.8222775935656 509.15524005490096 1055.735779535889 509.15524005490096L1055.735779535889 509.15524005490096ZM1098.8264960262923 489.03393241586923Q1092.9456944489607 489.03393241586923 1090.677762002097 486.55502950883255Q1088.3834582477123 484.1024979093175 1088.3834582477123 478.4062954846375L1088.3834582477123 478.4062954846375Q1088.3834582477123 472.49912259978413 1091.1524455374874 469.8619918476175Q1093.8950615197405 467.1984897879292 1099.9868335572455 467.1984897879292L1099.9868335572455 467.1984897879292Q1105.8676351345773 467.1984897879292 1108.0564536588756 469.7565066175308Q1110.2189008756523 472.3145234471325 1110.2189008756523 478.5908946372892L1110.2189008756523 478.5908946372892Q1110.2189008756523 484.47169621462086 1107.5817701234855 486.73962866148423Q1104.9182680637973 489.03393241586923 1098.8264960262923 489.03393241586923L1098.8264960262923 489.03393241586923ZM1079.8391546106923 602.1932129913412L1079.8391546106923 591.934774365413L1089.5437957786658 590.6162089893296Q1092.3918969910055 590.4316098366778 1093.1302936016123 589.0075592305079Q1093.8950615197405 587.5835086243378 1093.8950615197405 583.5750698810446L1093.8950615197405 583.5750698810446L1093.8950615197405 529.2765476939327Q1093.8950615197405 525.1098811055093 1093.1302936016123 523.6858304993393Q1092.3918969910055 522.2617798931693 1089.5437957786658 522.0771807405176L1089.5437957786658 522.0771807405176L1079.8391546106923 520.9168432095644L1079.8391546106923 511.05397419646096L1109.0849346522207 511.05397419646096L1109.0849346522207 583.5750698810446Q1109.0849346522207 587.5835086243378 1109.9551878004356 589.0075592305079Q1110.7990696411289 590.4316098366778 1113.4625717008175 590.6162089893296L1113.4625717008175 590.6162089893296L1123.3254407139207 591.934774365413L1123.3254407139207 602.1932129913412L1079.8391546106923 602.1932129913412ZM1132.4499131164175 602.1932129913412L1132.4499131164175 591.934774365413L1142.3127821295207 590.6162089893296Q1144.976284189209 590.4316098366778 1145.8201660299023 589.0075592305079Q1146.6904191781173 587.5835086243378 1146.6904191781173 583.5750698810446L1146.6904191781173 583.5750698810446L1146.6904191781173 471.9453251418292Q1146.6904191781173 468.1478568587092 1145.8201660299023 466.9084054051908Q1144.976284189209 465.66895395167245 1142.3127821295207 465.29975564636914L1142.3127821295207 465.29975564636914L1132.4499131164175 464.16578942293745L1132.4499131164175 454.0919499496608L1161.8802923105975 454.0919499496608L1161.8802923105975 583.5750698810446Q1161.8802923105975 587.5835086243378 1162.645060228726 589.0075592305079Q1163.3834568393327 590.4316098366778 1166.2315580516724 590.6162089893296L1166.2315580516724 590.6162089893296L1175.936199219646 591.934774365413L1175.936199219646 602.1932129913412L1132.4499131164175 602.1932129913412ZM1344.3433690530096 590.8008081419812Q1348.1408373361296 590.8008081419812 1351.1735377011214 589.4822427658978L1351.1735377011214 589.4822427658978L1350.4087697829932 600.479078002433Q1345.661934429093 604.0919471329012 1337.117630792073 604.0919471329012L1337.117630792073 604.0919471329012Q1330.472061296613 604.0919471329012 1325.0659432546713 600.5845632325195Q1319.6598252127296 597.0771793321378 1314.9129898588294 589.8514410712012L1314.9129898588294 589.8514410712012L1291.3634122419812 552.4569270054778Q1287.0121465009063 545.6003870498444 1283.6893617531762 543.1478554503294Q1280.3665770054463 540.6689525432928 1275.224172038721 540.6689525432928L1275.224172038721 540.6689525432928L1268.974172156086 540.6689525432928L1268.974172156086 582.4411036576128Q1268.974172156086 586.238571940733 1270.1081383795179 587.6626225469029Q1271.2421046029494 589.086673153073 1274.6703745807663 589.6668419185496L1274.6703745807663 589.6668419185496L1286.0627794301263 591.3809769074578L1286.0627794301263 602.1932129913412L1238.198856278301 602.1932129913412L1238.198856278301 591.3809769074578L1247.6925269861013 589.6668419185496Q1251.1207969639177 589.086673153073 1252.1492779572627 587.6626225469029Q1253.2041302581292 586.238571940733 1253.2041302581292 582.4411036576128L1253.2041302581292 582.4411036576128L1253.2041302581292 485.2364641327492Q1253.2041302581292 481.4389958496292 1252.1492779572627 480.0149452434592Q1251.1207969639177 478.5908946372892 1247.6925269861013 478.0107258718125L1247.6925269861013 478.0107258718125L1238.198856278301 476.2965908829042L1238.198856278301 465.4843547990208L1287.5659439588612 465.4843547990208Q1309.0321882814978 465.4843547990208 1319.949909595468 474.2132575886925Q1330.867630909438 482.94216037836424 1330.867630909438 499.6615693471009L1330.867630909438 499.6615693471009Q1330.867630909438 515.800809550361 1321.1893610489863 525.5845646408993Q1311.484719881013 535.3683197314376 1295.9256484432294 537.0560834128244L1295.9256484432294 537.0560834128244Q1299.9077158790012 538.585619249081 1302.7558170913412 541.433720461421Q1305.6039183036812 544.281821673761 1308.6366186686728 549.0286570276611L1308.6366186686728 549.0286570276611L1328.968896767878 581.1225382815296Q1335.0342974978612 590.8008081419812 1344.3433690530096 590.8008081419812L1344.3433690530096 590.8008081419812ZM1286.4319777354294 527.5624127050244Q1300.092315031653 527.5624127050244 1306.9488549872863 521.3915267449543Q1313.7790236353978 515.2206407848844 1313.7790236353978 501.9295017939642L1313.7790236353978 501.9295017939642Q1313.7790236353978 490.74806740477754 1306.3686862218096 484.7617805973592Q1298.9583488082212 478.77549378994087 1284.5332435938694 478.77549378994087L1284.5332435938694 478.77549378994087L1268.974172156086 478.77549378994087L1268.974172156086 527.5624127050244L1286.4319777354294 527.5624127050244ZM1395.2399925698264 604.0919471329012Q1376.041680694053 604.0919471329012 1365.2294446101696 591.934774365413Q1354.4172085262865 579.7776015979246 1354.4172085262865 559.6562939588928L1354.4172085262865 559.6562939588928Q1354.4172085262865 545.0465895918894 1360.2980101036183 533.5486995124427Q1366.1788116809498 522.0771807405176 1376.8064486121812 515.6162103977093Q1387.434085543413 509.15524005490096 1401.4899924524616 509.15524005490096L1401.4899924524616 509.15524005490096Q1420.4773338680616 509.15524005490096 1431.3950551820317 521.2069275923027Q1442.3127764960018 533.2586151297044 1442.3127764960018 552.8261253107811L1442.3127764960018 552.8261253107811Q1442.3127764960018 567.4358296777845 1436.5374601487565 579.1183189098829Q1430.7357724939898 590.8008081419812 1420.0026503326717 597.4463776374412Q1409.2695281713532 604.0919471329012 1395.2399925698264 604.0919471329012L1395.2399925698264 604.0919471329012ZM1400.9361949945064 591.3809769074578Q1414.7811314433816 591.3809769074578 1420.29273471541 583.1003863456544Q1425.8043379874384 574.8461670913728 1425.8043379874384 556.6235935939011L1425.8043379874384 556.6235935939011Q1425.8043379874384 539.7195854725128 1418.0248022685464 530.7005983001027Q1410.2188952421334 521.6816111276926 1395.7937900277816 521.6816111276926L1395.7937900277816 521.6816111276926Q1381.9488535789064 521.6816111276926 1376.437250306878 530.041315612061Q1370.9256470348496 538.4010200964294 1370.9256470348496 556.6235935939011L1370.9256470348496 556.6235935939011Q1370.9256470348496 573.8968000205928 1378.7051827537416 582.6257028102646Q1386.4847184726332 591.3809769074578 1400.9361949945064 591.3809769074578L1400.9361949945064 591.3809769074578ZM1457.1334513231782 597.4463776374412L1458.8475863120866 574.4769687860694L1469.8444215486215 574.4769687860694L1471.3739573848784 588.3219052349446Q1480.4720584798533 592.3303439782378 1491.1260667186066 592.3303439782378L1491.1260667186066 592.3303439782378Q1498.7210032848466 592.3303439782378 1504.0216360967015 589.086673153073Q1509.3486402160784 585.8693736354296 1509.3486402160784 578.4590362218412L1509.3486402160784 578.4590362218412Q1509.3486402160784 574.0813991732446 1505.920370238262 570.9695848856877Q1502.5184715679666 567.8313992906094 1495.4773324596817 564.9832980782694L1495.4773324596817 564.9832980782694L1482.1861934687618 559.6562939588928Q1470.2399911614466 554.9094586049928 1464.8075018119835 549.3978553329644Q1459.4013837700418 543.9126233684577 1459.4013837700418 534.2079822004844L1459.4013837700418 534.2079822004844Q1459.4013837700418 522.0771807405176 1469.2906240906668 515.6162103977093Q1479.15349310377 509.15524005490096 1493.0248008601666 509.15524005490096L1493.0248008601666 509.15524005490096Q1506.5005390037386 509.15524005490096 1522.4551800543468 514.4822441742776L1522.4551800543468 514.4822441742776L1520.9256442180904 536.686885107521L1510.1134081342066 536.686885107521L1507.63450522717 522.8155773511244Q1498.325433672022 519.9674761387844 1489.5965308823502 519.9674761387844L1489.5965308823502 519.9674761387844Q1474.0374594445666 519.9674761387844 1474.0374594445666 531.940049753621L1474.0374594445666 531.940049753621Q1474.0374594445666 537.0560834128244 1477.7294424975998 540.3788681605544Q1481.421425550633 543.7016529082844 1489.4119317296986 546.9453237334494L1489.4119317296986 546.9453237334494L1501.1735348843617 551.5075599346978Q1513.515306804502 556.4389944412494 1519.211509229182 561.5550281004528Q1524.907711653862 566.6974330671778 1524.907711653862 575.6109350095012L1524.907711653862 575.6109350095012Q1524.907711653862 584.339837799173 1520.081762377397 590.8008081419812Q1515.22944179341 597.2617784847896 1507.2653069218668 600.6636771550845Q1499.2748007428017 604.0919471329012 1490.1766996478268 604.0919471329012L1490.1766996478268 604.0919471329012Q1480.2874593272018 604.0919471329012 1472.6925227609618 602.377812143993Q1465.0975861947218 600.6636771550845 1457.1334513231782 597.4463776374412L1457.1334513231782 597.4463776374412ZM1582.8191029714421 592.3303439782378Q1587.7505374779935 592.3303439782378 1596.2948411150137 590.6162089893296L1596.2948411150137 590.6162089893296L1594.6070774336272 600.479078002433Q1591.758976221287 601.824014686038 1585.2980058784788 602.9579809094696Q1578.83703553567 604.0919471329012 1572.0068668875588 604.0919471329012L1572.0068668875588 604.0919471329012Q1560.0342932727217 604.0919471329012 1554.7336604608668 597.0771793321378Q1549.4066563414904 590.036040223853 1549.4066563414904 575.4263358568496L1549.4066563414904 575.4263358568496L1549.4066563414904 521.8662102803444L1535.3507494324417 521.8662102803444L1535.3507494324417 512.7681091853692L1549.4066563414904 511.05397419646096L1549.4066563414904 494.14996607507254L1564.5965294739703 490.74806740477754L1564.5965294739703 511.05397419646096L1589.860242079727 509.15524005490096L1589.860242079727 521.8662102803444L1564.5965294739703 521.8662102803444L1564.5965294739703 569.5455342795178Q1564.5965294739703 578.0898379165378 1566.0205800801405 582.9157871930029Q1567.4446306863101 587.7681077769896 1571.3475841995169 590.036040223853Q1575.2241664052021 592.3303439782378 1582.8191029714421 592.3303439782378L1582.8191029714421 592.3303439782378ZM1665.2294389766507 509.15524005490096Q1673.9583417663225 509.15524005490096 1680.4193121091307 512.7681091853692L1680.4193121091307 512.7681091853692L1678.8897762728739 536.686885107521L1667.892941036339 536.686885107521L1665.8096077421274 524.7143114926844Q1663.5153039877423 523.2111469639493 1658.768468633842 523.2111469639493L1658.768468633842 523.2111469639493Q1651.3581312202537 523.2111469639493 1645.108131337619 529.8567164594094Q1638.8317601474623 536.5022859548694 1636.5638277005987 545.8113575100177L1636.5638277005987 545.8113575100177L1636.5638277005987 583.5750698810446Q1636.5638277005987 587.5835086243378 1637.4077095412922 589.0075592305079Q1638.2779626895071 590.4316098366778 1640.915093441674 590.6162089893296L1640.915093441674 590.6162089893296L1654.4172028927674 591.934774365413L1654.4172028927674 602.1932129913412L1606.948849353767 602.1932129913412L1606.948849353767 591.934774365413L1616.996317519522 590.6162089893296Q1619.8444187318619 590.4316098366778 1620.6091866499905 589.0075592305079Q1621.3739545681187 587.5835086243378 1621.3739545681187 583.5750698810446L1621.3739545681187 583.5750698810446L1621.3739545681187 529.2765476939327Q1621.3739545681187 525.1098811055093 1620.6091866499905 523.6858304993393Q1619.8444187318619 522.2617798931693 1616.996317519522 522.0771807405176L1616.996317519522 522.0771807405176L1607.3180476590705 520.9168432095644L1607.3180476590705 511.05397419646096L1633.9003256409105 511.05397419646096L1635.7990597824705 529.091948541281Q1639.9657263708937 520.7322440569126 1648.1408317026107 514.9569277096676Q1656.3159370343274 509.15524005490096 1665.2294389766507 509.15524005490096L1665.2294389766507 509.15524005490096ZM1729.601800637039 604.0919471329012Q1710.4298600687875 604.0919471329012 1699.5912526773823 591.934774365413Q1688.779016593499 579.7776015979246 1688.779016593499 559.6562939588928L1688.779016593499 559.6562939588928Q1688.779016593499 545.0465895918894 1694.6598181708305 533.5486995124427Q1700.5406197481625 522.0771807405176 1711.1682566793938 515.6162103977093Q1721.8222649181475 509.15524005490096 1735.8518005196743 509.15524005490096L1735.8518005196743 509.15524005490096Q1754.8391419352743 509.15524005490096 1765.7568632492444 521.2069275923027Q1776.6745845632145 533.2586151297044 1776.6745845632145 552.8261253107811L1776.6745845632145 552.8261253107811Q1776.6745845632145 567.4358296777845 1770.8992682159692 579.1183189098829Q1765.0975805612024 590.8008081419812 1754.3644583998844 597.4463776374412Q1743.6577075460873 604.0919471329012 1729.601800637039 604.0919471329012L1729.601800637039 604.0919471329012ZM1735.298003061719 591.3809769074578Q1749.1429395105943 591.3809769074578 1754.6545427826227 583.1003863456544Q1760.166146054651 574.8461670913728 1760.166146054651 556.6235935939011L1760.166146054651 556.6235935939011Q1760.166146054651 539.7195854725128 1752.386610335759 530.7005983001027Q1744.6070746168675 521.6816111276926 1730.1555980949943 521.6816111276926L1730.1555980949943 521.6816111276926Q1716.3106616461191 521.6816111276926 1710.7990583740907 530.041315612061Q1705.2874551020627 538.4010200964294 1705.2874551020627 556.6235935939011L1705.2874551020627 556.6235935939011Q1705.2874551020627 573.8968000205928 1713.0669908209543 582.6257028102646Q1720.8728978473673 591.3809769074578 1735.298003061719 591.3809769074578L1735.298003061719 591.3809769074578ZM1841.442515836428 465.4843547990208L1935.218885383475 465.4843547990208L1934.0849191600432 498.1320335108442L1922.3233160053796 498.1320335108442L1921.1893497819483 484.2870970619692Q1920.9783793217748 481.04342623680424 1919.3697295629531 479.90946001337255Q1917.7610798041314 478.77549378994087 1913.9636115210114 478.77549378994087L1913.9636115210114 478.77549378994087L1872.191460406691 478.77549378994087L1872.191460406691 525.8746490236376L1913.1988436028828 525.8746490236376L1913.1988436028828 538.585619249081L1872.191460406691 538.585619249081L1872.191460406691 582.6257028102646Q1872.191460406691 586.4231710933846 1873.3254266301228 587.9527069296412Q1874.4593928535546 589.4822427658978 1877.8876628313715 589.8514410712012L1877.8876628313715 589.8514410712012L1891.363400974943 591.3809769074578L1891.363400974943 602.1932129913412L1841.442515836428 602.1932129913412L1841.442515836428 591.3809769074578L1850.936186544228 589.6668419185496Q1854.3380852145228 589.086673153073 1855.3929375153893 587.6626225469029Q1856.4214185087344 586.238571940733 1856.4214185087344 582.4411036576128L1856.4214185087344 582.4411036576128L1856.4214185087344 484.2870970619692Q1856.4214185087344 480.85882708415255 1855.287452285303 479.3556625554175Q1854.1534860618713 477.82612671916087 1850.936186544228 477.4569284138575L1850.936186544228 477.4569284138575L1841.442515836428 476.2965908829042L1841.442515836428 465.4843547990208ZM1962.012133825488 489.03393241586923Q1956.1049609406346 489.03393241586923 1953.8370284937714 486.55502950883255Q1951.5690960469083 484.1024979093175 1951.5690960469083 478.4062954846375L1951.5690960469083 478.4062954846375Q1951.5690960469083 472.49912259978413 1954.3117120291613 469.8619918476175Q1957.0543280114148 467.1984897879292 1963.1461000489198 467.1984897879292L1963.1461000489198 467.1984897879292Q1969.0269016262514 467.1984897879292 1971.2157201505497 469.7565066175308Q1973.404538674848 472.3145234471325 1973.404538674848 478.5908946372892L1973.404538674848 478.5908946372892Q1973.404538674848 484.47169621462086 1970.7410366151598 486.73962866148423Q1968.0775345554716 489.03393241586923 1962.012133825488 489.03393241586923L1962.012133825488 489.03393241586923ZM1943.024792409888 602.1932129913412L1943.024792409888 591.934774365413L1952.70306227034 590.6162089893296Q1955.5511634826798 590.4316098366778 1956.315931400808 589.0075592305079Q1957.0543280114148 587.5835086243378 1957.0543280114148 583.5750698810446L1957.0543280114148 583.5750698810446L1957.0543280114148 529.2765476939327Q1957.0543280114148 525.1098811055093 1956.315931400808 523.6858304993393Q1955.5511634826798 522.2617798931693 1952.70306227034 522.0771807405176L1952.70306227034 522.0771807405176L1943.024792409888 520.9168432095644L1943.024792409888 511.05397419646096L1972.2442011438948 511.05397419646096L1972.2442011438948 583.5750698810446Q1972.2442011438948 587.5835086243378 1973.1144542921097 589.0075592305079Q1973.9583361328032 590.4316098366778 1976.6218381924914 590.6162089893296L1976.6218381924914 590.6162089893296L1986.484707205595 591.934774365413L1986.484707205595 602.1932129913412L1943.024792409888 602.1932129913412ZM2039.8602336294484 604.0919471329012Q2020.661921753675 604.0919471329012 2009.8496856697916 591.934774365413Q1999.0374495859082 579.7776015979246 1999.0374495859082 559.6562939588928L1999.0374495859082 559.6562939588928Q1999.0374495859082 545.0465895918894 2004.9182511632403 533.5486995124427Q2010.7990527405714 522.0771807405176 2021.4266896718032 515.6162103977093Q2032.054326603035 509.15524005490096 2046.1102335120831 509.15524005490096L2046.1102335120831 509.15524005490096Q2065.0975749276836 509.15524005490096 2076.0152962416537 521.2069275923027Q2086.933017555624 533.2586151297044 2086.933017555624 552.8261253107811L2086.933017555624 552.8261253107811Q2086.933017555624 567.4358296777845 2081.1577012083785 579.1183189098829Q2075.356013553612 590.8008081419812 2064.6228913922932 597.4463776374412Q2053.889769230975 604.0919471329012 2039.8602336294484 604.0919471329012L2039.8602336294484 604.0919471329012ZM2045.5564360541284 591.3809769074578Q2059.4013725030036 591.3809769074578 2064.912975775032 583.1003863456544Q2070.42457904706 574.8461670913728 2070.42457904706 556.6235935939011L2070.42457904706 556.6235935939011Q2070.42457904706 539.7195854725128 2062.6450433281684 530.7005983001027Q2054.839136301755 521.6816111276926 2040.4140310874036 521.6816111276926L2040.4140310874036 521.6816111276926Q2026.5690946385284 521.6816111276926 2021.0574913665 530.041315612061Q2015.5458880944716 538.4010200964294 2015.5458880944716 556.6235935939011L2015.5458880944716 556.6235935939011Q2015.5458880944716 573.8968000205928 2023.3254238133632 582.6257028102646Q2031.1049595322547 591.3809769074578 2045.5564360541284 591.3809769074578L2045.5564360541284 591.3809769074578ZM2160.61445077116 509.15524005490096Q2169.3433535608324 509.15524005490096 2175.80432390364 512.7681091853692L2175.80432390364 512.7681091853692L2174.274788067384 536.686885107521L2163.277952830849 536.686885107521L2161.1682482291153 524.7143114926844Q2158.900315782252 523.2111469639493 2154.153480428352 523.2111469639493L2154.153480428352 523.2111469639493Q2146.743143014764 523.2111469639493 2140.493143132129 529.8567164594094Q2134.216771941972 536.5022859548694 2131.9488394951086 545.8113575100177L2131.9488394951086 545.8113575100177L2131.9488394951086 583.5750698810446Q2131.9488394951086 587.5835086243378 2132.792721335802 589.0075592305079Q2133.6366031764956 590.4316098366778 2136.3001052361838 590.6162089893296L2136.3001052361838 590.6162089893296L2149.7758433797553 591.934774365413L2149.7758433797553 602.1932129913412L2102.3074898407554 602.1932129913412L2102.3074898407554 591.934774365413L2112.381329314032 590.6162089893296Q2115.2294305263717 590.4316098366778 2115.9941984445004 589.0075592305079Q2116.7589663626286 587.5835086243378 2116.7589663626286 583.5750698810446L2116.7589663626286 583.5750698810446L2116.7589663626286 529.2765476939327Q2116.7589663626286 525.1098811055093 2115.9941984445004 523.6858304993393Q2115.2294305263717 522.2617798931693 2112.381329314032 522.0771807405176L2112.381329314032 522.0771807405176L2102.7030594535804 520.9168432095644L2102.7030594535804 511.05397419646096L2129.2853374354204 511.05397419646096L2131.1840715769804 529.091948541281Q2135.3507381654035 520.7322440569126 2143.52584349712 514.9569277096676Q2151.6745775213153 509.15524005490096 2160.61445077116 509.15524005490096L2160.61445077116 509.15524005490096ZM2203.705167261564 489.03393241586923Q2197.8243656842324 489.03393241586923 2195.5564332373688 486.55502950883255Q2193.2621294829837 484.1024979093175 2193.2621294829837 478.4062954846375L2193.2621294829837 478.4062954846375Q2193.2621294829837 472.49912259978413 2196.031116772759 469.8619918476175Q2198.773732755012 467.1984897879292 2204.8391334849953 467.1984897879292L2204.8391334849953 467.1984897879292Q2210.7463063698488 467.1984897879292 2212.9087535866256 469.7565066175308Q2215.097572110924 472.3145234471325 2215.097572110924 478.5908946372892L2215.097572110924 478.5908946372892Q2215.097572110924 484.47169621462086 2212.4340700512353 486.73962866148423Q2209.796939299069 489.03393241586923 2203.705167261564 489.03393241586923L2203.705167261564 489.03393241586923ZM2184.717825845964 602.1932129913412L2184.717825845964 591.934774365413L2194.3960957064155 590.6162089893296Q2197.2441969187553 590.4316098366778 2198.008964836884 589.0075592305079Q2198.773732755012 587.5835086243378 2198.773732755012 583.5750698810446L2198.773732755012 583.5750698810446L2198.773732755012 529.2765476939327Q2198.773732755012 525.1098811055093 2198.008964836884 523.6858304993393Q2197.2441969187553 522.2617798931693 2194.3960957064155 522.0771807405176L2194.3960957064155 522.0771807405176L2184.717825845964 520.9168432095644L2184.717825845964 511.05397419646096L2213.9636058874926 511.05397419646096L2213.9636058874926 583.5750698810446Q2213.9636058874926 587.5835086243378 2214.8074877281856 589.0075592305079Q2215.6777408764005 590.4316098366778 2218.3412429360887 590.6162089893296L2218.3412429360887 590.6162089893296L2228.2041119491923 591.934774365413L2228.2041119491923 602.1932129913412L2184.717825845964 602.1932129913412ZM2237.328584351689 602.1932129913412L2237.328584351689 591.934774365413L2247.1914533647923 590.6162089893296Q2249.854955424481 590.4316098366778 2250.698837265174 589.0075592305079Q2251.569090413389 587.5835086243378 2251.569090413389 583.5750698810446L2251.569090413389 583.5750698810446L2251.569090413389 471.9453251418292Q2251.569090413389 468.1478568587092 2250.698837265174 466.9084054051908Q2249.854955424481 465.66895395167245 2247.1914533647923 465.29975564636914L2247.1914533647923 465.29975564636914L2237.328584351689 464.16578942293745L2237.328584351689 454.0919499496608L2266.758963545869 454.0919499496608L2266.758963545869 583.5750698810446Q2266.758963545869 587.5835086243378 2267.4973601564757 589.0075592305079Q2268.2621280746043 590.4316098366778 2271.110229286944 590.6162089893296L2271.110229286944 590.6162089893296L2280.788499147396 591.934774365413L2280.788499147396 602.1932129913412L2237.328584351689 602.1932129913412ZM2334.348624723901 604.0919471329012Q2315.176684155649 604.0919471329012 2304.3380767642443 591.934774365413Q2293.525840680361 579.7776015979246 2293.525840680361 559.6562939588928L2293.525840680361 559.6562939588928Q2293.525840680361 545.0465895918894 2299.4066422576925 533.5486995124427Q2305.287443835024 522.0771807405176 2315.915080766256 515.6162103977093Q2326.5690890050096 509.15524005490096 2340.598624606536 509.15524005490096L2340.598624606536 509.15524005490096Q2359.5859660221363 509.15524005490096 2370.503687336106 521.2069275923027Q2381.421408650076 533.2586151297044 2381.421408650076 552.8261253107811L2381.421408650076 552.8261253107811Q2381.421408650076 567.4358296777845 2375.6460923028308 579.1183189098829Q2369.8444046480645 590.8008081419812 2359.111282486746 597.4463776374412Q2348.4045316329493 604.0919471329012 2334.348624723901 604.0919471329012L2334.348624723901 604.0919471329012ZM2340.0448271485807 591.3809769074578Q2353.889763597456 591.3809769074578 2359.4013668694843 583.1003863456544Q2364.9129701415127 574.8461670913728 2364.9129701415127 556.6235935939011L2364.9129701415127 556.6235935939011Q2364.9129701415127 539.7195854725128 2357.133434422621 530.7005983001027Q2349.3538987037296 521.6816111276926 2334.902422181856 521.6816111276926L2334.902422181856 521.6816111276926Q2321.057485732981 521.6816111276926 2315.5458824609527 530.041315612061Q2310.034279188924 538.4010200964294 2310.034279188924 556.6235935939011L2310.034279188924 556.6235935939011Q2310.034279188924 573.8968000205928 2317.813814907816 582.6257028102646Q2325.6197219342293 591.3809769074578 2340.0448271485807 591.3809769074578L2340.0448271485807 591.3809769074578Z " fill="#f7c5cc" transform="matrix(0.3674275913738487,0,0,0.3674275913738487,0,105.59700536733772)"/></g></svg>